<svg id="Layer_1" data-name="Layer 1" xmlns="http://www.w3.org/2000/svg" viewBox="0 0 1124.4 173.2"><defs><style>.cls-1{fill:#fff;}</style></defs><path class="cls-1" d="M300.7,173.2H254V105.6H196.7v67.5H149.6V4.4h47.1V67.7h57.1V4.4h46.9Z"/><path class="cls-1" d="M757.6,173.2H710.8V105.6H653.3v67.6H606.4V4.4h46.8V67.7h57.4V4.4h47Z"/><path class="cls-1" d="M460.2,119.3h49.9a49.1,49.1,0,0,0,2.1,7.5c3.2,8,12.4,11.4,21.7,8.2s10.2-14.9,4.7-19.8c-3.1-2.9-7.3-5-11.3-6.6-11.5-4.5-23.1-8.5-34.6-12.9s-19.8-10.8-26.1-20.8A38.9,38.9,0,0,1,461,57.8c-1-11,.4-21.7,6.2-31.5S481.6,10,491.9,5.8C505.9.1,520.4-.9,535.3.6c10.2,1,20,3.5,28.9,8.6,13.2,7.6,21.7,18.6,24.5,33.7.5,2.4.7,4.8,1,7.2a16.9,16.9,0,0,1,.1,2.3H539.1c-.4-2-.7-3.9-1.2-5.7-2.8-9.1-17-12.9-23.8-6.3a11.6,11.6,0,0,0,1.3,17.5,52.8,52.8,0,0,0,12.7,7.2c10.7,4.5,21.7,8.4,32.5,12.7a57.1,57.1,0,0,1,22.3,16,36.4,36.4,0,0,1,8.8,19.4c1.4,11-.2,21.6-5.6,31.4s-14,17.4-24.5,22.3c-13.4,6.2-27.7,7-42.2,5.9a80.8,80.8,0,0,1-22.8-4.9c-19.4-7.5-32-20.7-35.7-41.6a3.1,3.1,0,0,0-.1-1C460.6,123.4,460.5,121.5,460.2,119.3Z"/><path class="cls-1" d="M316.3,4.4H424.1V41.9H363.3V69.4h53.5v35.9H363.2v30.5h60.9v37.4H316.3Z"/><path class="cls-1" d="M1010.2,4.5h114.2V41.8h-67.3V71.4h49.7v35.8h-49.7v66h-46.9Z"/><path class="cls-1" d="M44.6,41.8H0V4.4H136.5V41.6H91.6V173.2h-47Z"/><path class="cls-1" d="M897,4.4h46.9V137.3h52.3v35.9H897Z"/><rect class="cls-1" x="774.2" y="4.4" width="107.7" height="37.55"/><rect class="cls-1" x="774.2" y="68.6" width="107.7" height="37.55"/><rect class="cls-1" x="774.2" y="135.7" width="107.7" height="37.55"/></svg>